<?xml version="1.0"?>
<!-- Copyright (c) 2017, Laslo Hunhold <dev@frign.de> CC BY 4.0 -->
<svg xmlns="http://www.w3.org/2000/svg" width="180" height="30">
<path d="m 165,22.5 15,0 0,7.5 -15,0 z m 0,-22.5 15,0 0,7.5 -15,0 z m -15,30 0,-30 7.5,0 0,7.5 7.5,0 0,15 -7.5,0 0,7.5 z m -37.5,0 0,-30 30,0 0,7.5 -22.5,0 0,22.5 z M 75,0 l 0,30 7.5,0 0,-7.5 15,0 0,7.5 7.5,0 0,-30 z M 82.5,7.5 l 15,0 0,7.5 -15,0 z m -45,-7.5 0,30 30,0 0,-30 -7.5,0 0,22.5 -15,0 0,-22.5 z M 0,0 0,30 l 30,0 0,-30 z M 7.5,7.5 l 15,0 0,7.5 -7.5,0 0,7.5 -7.5,0 z" fill="#222"/>
</svg>
