<?xml version="1.0" encoding="UTF-8" standalone="no"?>
<!-- Generator: Adobe Illustrator 18.1.1, SVG Export Plug-In . SVG Version: 6.00 Build 0)  -->

<svg
   xmlns:dc="http://purl.org/dc/elements/1.1/"
   xmlns:cc="http://creativecommons.org/ns#"
   xmlns:rdf="http://www.w3.org/1999/02/22-rdf-syntax-ns#"
   xmlns:svg="http://www.w3.org/2000/svg"
   xmlns="http://www.w3.org/2000/svg"
   xmlns:sodipodi="http://sodipodi.sourceforge.net/DTD/sodipodi-0.dtd"
   xmlns:inkscape="http://www.inkscape.org/namespaces/inkscape"
   version="1.1"
   id="Layer_1"
   x="0px"
   y="0px"
   viewBox="0 0 299.89999 103.2"
   enable-background="new 0 0 960 560"
   xml:space="preserve"
   inkscape:version="0.91 r13725"
   sodipodi:docname="micro-logo.svg"
   width="299.89999"
   height="103.2"><metadata
     id="metadata21"><rdf:RDF><cc:Work
         rdf:about=""><dc:format>image/svg+xml</dc:format><dc:type
           rdf:resource="http://purl.org/dc/dcmitype/StillImage" /><dc:title></dc:title></cc:Work></rdf:RDF></metadata><defs
     id="defs19" /><sodipodi:namedview
     pagecolor="#ffffff"
     bordercolor="#666666"
     borderopacity="1"
     objecttolerance="10"
     gridtolerance="10"
     guidetolerance="10"
     inkscape:pageopacity="0"
     inkscape:pageshadow="2"
     inkscape:window-width="1237"
     inkscape:window-height="867"
     id="namedview17"
     showgrid="false"
     fit-margin-top="0"
     fit-margin-left="0"
     fit-margin-right="0"
     fit-margin-bottom="0"
     inkscape:zoom="1.1416667"
     inkscape:cx="75.655934"
     inkscape:cy="-4"
     inkscape:window-x="1097"
     inkscape:window-y="185"
     inkscape:window-maximized="0"
     inkscape:current-layer="Layer_1" /><g
     id="g3"
     transform="translate(-178,-172.8)"><path
       d="m 306.8,213.8 0,-2.6 c 1.6,-0.1 2.9,-0.4 4.1,-0.8 1.2,-0.4 2.5,-1 4,-1.8 l 2.3,0 0,5.2 c 2.4,-1.9 4.2,-3.1 5.5,-3.8 2,-1 4,-1.5 5.8,-1.5 1.3,0 2.5,0.2 3.7,0.7 1.2,0.5 2.2,1 2.9,1.7 0.7,0.7 1.4,1.6 1.9,2.8 2.2,-1.9 4.2,-3.3 6,-4 1.9,-0.8 3.7,-1.2 5.6,-1.2 1.8,0 3.4,0.4 4.8,1.1 1.4,0.8 2.4,1.7 3,2.8 0.6,1.1 0.9,2.8 0.9,5 l 0,14.4 c 0,1.5 0,2.4 0.1,2.6 0.1,0.4 0.3,0.8 0.7,1.1 0.3,0.4 0.7,0.6 1.2,0.7 0.4,0.1 1.2,0.2 2.4,0.2 l 1,0 0,2.6 -15.5,0 0,-2.6 c 1.8,0 2.9,-0.1 3.5,-0.4 0.5,-0.2 0.9,-0.6 1.2,-1.2 0.3,-0.6 0.4,-1.6 0.4,-3.2 l 0,-13.7 c 0,-1.7 -0.2,-2.9 -0.5,-3.6 -0.3,-0.7 -0.9,-1.2 -1.7,-1.7 -0.8,-0.4 -1.8,-0.7 -3,-0.7 -1.5,0 -3,0.4 -4.6,1.2 -2.2,1.1 -3.9,2.3 -5.1,3.6 l 0,14.8 c 0,1.4 0.1,2.4 0.2,2.8 0.1,0.4 0.4,0.8 0.7,1.1 0.3,0.3 0.7,0.5 1.1,0.6 0.4,0.1 1.5,0.2 3.1,0.2 l 0,2.6 -15.3,0 0,-2.6 0.9,0 c 1.2,0 2.1,-0.1 2.6,-0.4 0.5,-0.3 0.9,-0.7 1.2,-1.3 0.2,-0.5 0.3,-1.5 0.3,-2.9 l 0,-13.2 c 0,-1.9 -0.2,-3.3 -0.5,-3.9 -0.3,-0.7 -0.9,-1.3 -1.7,-1.7 -0.8,-0.5 -1.8,-0.7 -3,-0.7 -1.3,0 -2.7,0.3 -4.1,1 -2,1 -3.9,2.2 -5.6,3.8 l 0,15.9 c 0,1 0.1,1.6 0.4,2.1 0.3,0.4 0.7,0.8 1.2,1.1 0.6,0.3 1.3,0.4 2.3,0.4 l 1.1,0 0,2.6 -15.6,0 0,-2.6 0.8,0 c 1.4,0 2.4,-0.1 2.8,-0.3 0.7,-0.3 1.1,-0.8 1.4,-1.5 0.2,-0.4 0.2,-1.3 0.2,-2.9 l 0,-18.1 -5.1,0 z"
       id="path5"
       inkscape:connector-curvature="0" /><path
       d="m 366.4,213.7 0,-2.6 c 1.7,-0.2 3.2,-0.5 4.3,-0.9 1.2,-0.4 2.5,-1 4,-1.7 l 2.3,0 0,24.9 c 0,0.9 0.1,1.5 0.4,2 0.2,0.4 0.6,0.8 1,0.9 0.4,0.2 1.3,0.3 2.4,0.3 l 1.5,0 0,2.6 -15.9,0 0,-2.6 1.3,0 c 1.4,0 2.3,-0.1 2.8,-0.4 0.5,-0.2 0.8,-0.6 1,-1.1 0.2,-0.5 0.3,-1.5 0.3,-3.2 l 0,-18.3 -5.4,0 z m 7.9,-19.2 c 1,0 1.8,0.3 2.5,1 0.7,0.7 1.1,1.5 1.1,2.5 0,1 -0.4,1.8 -1.1,2.5 -0.7,0.7 -1.6,1.1 -2.5,1.1 -1,0 -1.8,-0.4 -2.5,-1.1 -0.7,-0.7 -1.1,-1.6 -1.1,-2.5 0,-1 0.4,-1.8 1.1,-2.5 0.6,-0.6 1.5,-1 2.5,-1 z"
       id="path7"
       inkscape:connector-curvature="0" /><path
       d="m 413.1,230.6 2,1.6 c -3.9,5.2 -8.6,7.8 -14,7.8 -4.2,0 -7.8,-1.5 -10.7,-4.5 -2.9,-3 -4.4,-6.8 -4.4,-11.3 0,-3 0.7,-5.7 2,-8.1 1.3,-2.4 3.2,-4.2 5.6,-5.6 2.4,-1.3 5.2,-2 8.3,-2 3.6,0 6.5,0.9 8.9,2.6 2.4,1.7 3.6,3.5 3.6,5.3 0,1 -0.3,1.7 -0.8,2.2 -0.5,0.5 -1.2,0.8 -1.9,0.8 -0.4,0 -0.7,-0.1 -1.1,-0.3 -0.4,-0.2 -0.7,-0.5 -1.1,-0.9 -0.2,-0.2 -0.5,-0.8 -0.9,-1.7 -0.6,-1.2 -1,-2 -1.3,-2.4 -0.6,-0.8 -1.4,-1.5 -2.4,-2 -0.9,-0.5 -2,-0.7 -3.1,-0.7 -1.8,0 -3.4,0.5 -4.9,1.5 -1.5,1 -2.7,2.4 -3.6,4.3 -0.9,1.9 -1.3,4.2 -1.3,6.8 0,4.1 1.1,7.3 3.3,9.7 1.9,2.1 4.1,3.1 6.7,3.1 1.2,0 2.4,-0.2 3.6,-0.6 1.2,-0.4 2.4,-1 3.5,-1.8 0.9,-0.6 2.2,-1.8 4,-3.8 z"
       id="path9"
       inkscape:connector-curvature="0" /><path
       d="m 418.7,213.7 0,-2.6 c 1.5,-0.1 2.8,-0.4 4,-0.8 1.2,-0.4 2.5,-1 4,-1.9 l 2.3,0 0,5.9 c 1.5,-1.8 3.2,-3.2 5.1,-4.3 1.9,-1.1 3.7,-1.6 5.2,-1.6 1.5,0 2.7,0.4 3.6,1.1 0.9,0.7 1.3,1.6 1.3,2.6 0,0.7 -0.3,1.4 -0.9,2 -0.6,0.6 -1.3,0.9 -2.1,0.9 -0.4,0 -0.7,-0.1 -1,-0.2 -0.3,-0.1 -0.7,-0.3 -1.2,-0.7 -1.1,-0.7 -2.1,-1.1 -2.9,-1.1 -1,0 -2.2,0.4 -3.4,1.3 -1.6,1.1 -2.8,2.2 -3.7,3.3 l 0,14.4 c 0,1.2 0.1,2.1 0.2,2.5 0.1,0.4 0.4,0.8 0.7,1.1 0.3,0.3 0.7,0.6 1.1,0.7 0.5,0.1 1.3,0.2 2.4,0.2 l 1,0 0,2.6 -16,0 0,-2.6 1.3,0 c 1.3,0 2.1,-0.1 2.5,-0.3 0.5,-0.3 0.9,-0.7 1.2,-1.3 0.3,-0.5 0.4,-1.5 0.4,-3 l 0,-18.3 -5.1,0 z"
       id="path11"
       inkscape:connector-curvature="0" /><path
       d="m 462.8,208.5 c 3,0 5.7,0.6 7.9,1.9 2.2,1.3 4,3.1 5.3,5.5 1.3,2.4 1.9,5.2 1.9,8.3 0,3.1 -0.7,5.9 -2,8.3 -1.3,2.4 -3.1,4.3 -5.4,5.5 -2.3,1.3 -5,1.9 -8.1,1.9 -5,0 -8.8,-1.6 -11.3,-4.7 -2.5,-3.1 -3.8,-6.8 -3.8,-11 0,-3.1 0.7,-5.8 2,-8.2 1.3,-2.4 3.1,-4.2 5.5,-5.6 2.4,-1.2 5.1,-1.9 8,-1.9 z m -0.2,3 c -2.4,0 -4.4,0.9 -6,2.8 -2.1,2.3 -3.1,5.7 -3.1,10.1 0,4.3 0.9,7.5 2.6,9.7 1.6,2 3.8,3 6.5,3 1.8,0 3.3,-0.5 4.7,-1.4 1.4,-0.9 2.5,-2.4 3.3,-4.5 0.8,-2 1.3,-4.4 1.3,-7.2 0,-2.7 -0.5,-5.1 -1.4,-7.2 -0.7,-1.7 -1.8,-3 -3.2,-4 -1.3,-0.8 -2.9,-1.3 -4.7,-1.3 z"
       id="path13"
       inkscape:connector-curvature="0" /></g><path
     d="M 51.6,0 C 23.1,0 0,23.1 0,51.6 c 0,28.5 23.1,51.6 51.6,51.6 28.5,0 51.6,-23.1 51.6,-51.6 C 103.2,23.1 80.1,0 51.6,0 Z m 24.5,58.6 c -0.5,2 -1.3,3.6 -2.4,4.9 -1,1.3 -2,2.1 -3.1,2.5 -1.1,0.4 -2.2,0.6 -3.4,0.6 -1.2,0 -2.2,-0.2 -3,-0.7 C 63.4,65.5 62.8,64.8 62.3,64 61.8,63.2 61.5,62.2 61.3,61.1 61.1,60 61,58.8 61,57.5 c 0,-0.5 0,-1 0.1,-1.7 0.1,-0.7 0.2,-1.6 0.3,-1.6 l -0.2,0 c -1.6,4 -3.8,6.9 -6.6,9.2 -2.8,2.3 -5.9,3.4 -9.3,3.4 -2.3,0 -4.2,-0.9 -5.5,-2.6 -1.4,-1.7 -2.1,-4.3 -2.1,-7.7 0,-0.5 0,-1 0.1,-1.6 0.1,-0.5 0.1,-0.7 0.2,-1.7 l -0.7,0 c -0.9,2 -1.7,4.8 -2.3,7.3 -0.6,2.5 -1.1,4.8 -1.4,6.9 -0.4,2.1 -0.6,4 -0.8,5.6 -0.2,1.6 -0.3,2.7 -0.4,3.3 0.1,0.5 0.2,1 0.3,1.6 0.2,0.6 0.3,1.2 0.5,1.7 0.2,0.5 0.3,1.1 0.4,1.6 0.1,0.5 0.2,0.9 0.2,1.2 0,1.4 -0.3,2.5 -0.9,3.2 -0.6,0.7 -1.3,1.1 -2,1.1 -0.9,0 -1.7,-0.3 -2.3,-0.8 -0.7,-0.6 -1,-1.5 -1,-2.7 0,-1.7 0.3,-3.9 0.9,-6.5 0.6,-2.6 1.5,-5.9 2.6,-9.8 0.6,-1.8 1.1,-3.6 1.7,-5.4 0.6,-1.8 1.1,-3.5 1.6,-5 0.5,-1.5 0.9,-2.9 1.3,-4.1 0.4,-1.2 0.6,-2.1 0.7,-2.8 0.1,-0.3 0.2,-1 0.3,-2 0.1,-1 0.2,-2.1 0.4,-3.4 0.2,-1.3 0.3,-2.7 0.5,-4.1 0.2,-1.5 0.4,-2.8 0.5,-4 0.2,-0.9 0.3,-1.9 0.5,-3 0.2,-1.1 0.5,-2.2 0.9,-3.1 0.4,-1 1,-1.8 1.7,-2.5 0.7,-0.7 1.6,-1 2.7,-1 1.2,0 2,0.4 2.4,1.1 0.4,0.7 0.6,1.6 0.5,2.6 -0.1,1 -0.2,2.1 -0.5,3.2 -0.3,1.1 -0.6,2.1 -0.9,2.9 -0.8,2.5 -1.6,4.8 -2.5,6.7 -0.9,1.9 -1.7,4 -2.4,6.2 -0.6,1.5 -0.8,2.9 -0.8,4.1 0,2.2 0.7,3.8 2,5 1.4,1.2 3,1.7 4.9,1.7 1.5,0 3,-0.5 4.4,-1.6 1.4,-1.1 2.7,-2.4 3.9,-3.9 1.2,-1.5 2.2,-3.1 3,-4.9 0.8,-1.7 1.4,-3.3 1.8,-4.6 0.1,-0.2 0.2,-0.6 0.3,-1.4 0.2,-0.8 0.3,-1.7 0.5,-2.7 0.2,-1 0.4,-2 0.6,-3.1 0.2,-1.1 0.4,-2 0.5,-2.7 0.2,-0.8 0.3,-1.6 0.5,-2.6 0.2,-1 0.5,-1.9 0.9,-2.8 0.4,-0.9 1,-1.6 1.6,-2.2 0.7,-0.6 1.5,-0.9 2.6,-0.9 1.3,0 2.1,0.4 2.6,1.1 0.4,0.7 0.6,1.6 0.6,2.6 -0.1,1 -0.2,2 -0.5,3 -0.3,1 -0.5,1.8 -0.7,2.4 -0.8,2.5 -1.6,4.7 -2.4,6.7 -0.8,2 -1.5,3.8 -2.2,5.2 -0.6,1.5 -1.1,2.6 -1.5,3.5 -0.4,0.9 -0.6,1.5 -0.6,1.8 0,2.6 0.6,4.5 1.7,5.6 1.1,1.1 2.3,1.7 3.6,1.7 2.2,0 3.9,-0.7 5.2,-2 1.3,-1.4 2.3,-3.9 2.9,-6.9 l 0.8,0 c 0.2,2.9 -0.1,5.3 -0.6,7.3 z"
     id="path15"
     inkscape:connector-curvature="0"
     style="fill:#2e3192" /></svg>