<?xml version="1.0"?>
<!-- Copyright (c) 2016-2017, Laslo Hunhold <dev@frign.de> CC BY 4.0 -->
<svg xmlns="http://www.w3.org/2000/svg" width="178" height="40">
<path d="m 0,0 0,40 5.7143,0 0,-17.14287 5.71428,0 0,-5.71429 -5.71428,0 0,-11.42858 11.42858,0 0,-5.71429 -17.14288,0 z m 22.85716,0 0,40 5.71429,0 0,-17.14287 5.7143,0 0,17.14287 5.71428,0 0,-40 -17.14287,0 z m 22.85716,0 0,40 5.7143,0 0,-17.14287 5.71429,0 0,-5.71429 -5.71429,0 0,-11.42858 5.71429,0 0,-5.71429 -11.42859,0 z m 11.42859,5.71429 0,11.42858 5.71428,0 0,-11.42858 -5.71428,0 z m 0,17.14287 0,17.14287 5.71428,0 0,-17.14287 -5.71428,0 z m 11.42857,-22.85716 0,40 11.42859,0 0,-5.7143 -5.71428,0 0,-11.42857 5.71428,0 0,-5.71429 -5.71428,0 0,-11.42858 5.71428,0 0,-5.71429 -11.42859,0 z m 11.42859,5.71429 0,11.42858 5.71429,0 0,-11.42858 -5.71429,0 z m 0,17.14287 0,11.42857 5.71429,0 0,-11.42857 -5.71429,0 z m 11.42859,-22.85716 0,40 5.71429,0 0,-17.14287 5.71428,0 0,-5.71429 -5.71428,0 0,-11.42858 11.42858,0 0,-5.71429 -17.14287,0 z m 22.85715,0 0,40 17.14287,0 0,-5.7143 -11.42858,0 0,-11.42857 5.7143,0 0,-5.71429 -5.7143,0 0,-11.42858 11.42858,0 0,-5.71429 -17.14287,0 z m 22.85717,0 0,40 17.14287,0 0,-5.7143 -11.42859,0 0,-34.28573 -5.71428,0 z m 22.85715,0 0,40 11.42859,0 0,-5.7143 -5.7143,0 0,-28.57144 5.7143,0 0,-5.71429 -11.42859,0 z m 11.42859,5.71429 0,28.57144 5.71428,0 0,-28.57144 -5.71428,0 z m -142.85727,0 5.7143,0 0,11.42858 -5.7143,0 0,-11.42858 z" fill="#222"/>
</svg>
